<svg width="728" height="346" viewBox="0 0 728 346" fill="none" xmlns="http://www.w3.org/2000/svg">
<path d="M0.0781252 341H147.918C261.678 341 347.598 287.24 347.598 171.56C347.598 58.76 262.638 4.99998 143.598 4.99998H0.0781252V5.95999C21.1981 19.88 26.4781 31.4 26.4781 63.08V282.44C26.4781 314.12 21.1981 326.12 0.0781252 340.04V341ZM116.718 329V17H139.278C212.238 17 251.118 75.56 251.118 171.56C251.118 273.32 212.238 329 141.678 329H116.718ZM568.976 10.76C616.496 10.76 654.416 54.44 679.856 114.44H680.816L677.456 0.199982C667.376 8.83998 659.216 14.6 646.256 14.6C630.416 14.6 605.456 0.199982 560.336 0.199982C460.496 0.199982 376.496 70.28 376.496 175.4C376.496 278.12 448.496 345.8 552.176 345.8C596.336 345.8 636.656 324.68 658.736 297.8L700.496 345.8H701.456V241.16C701.456 209.48 706.256 197.96 727.856 184.04V183.08H587.216V184.04C608.816 197.96 613.616 209.48 613.616 241.16V266.6C613.616 308.84 591.536 333.8 554.096 333.8C503.216 333.8 474.416 265.16 474.416 175.4C474.416 76.04 508.016 10.76 568.976 10.76Z" fill="#3F7ADB"/>
</svg>
